<mxfile host="app.diagrams.net" modified="2024-02-12T03:41:19.996Z" agent="Mozilla/5.0 (Windows NT 10.0; Win64; x64) AppleWebKit/537.36 (KHTML, like Gecko) Chrome/120.0.0.0 Safari/537.36" etag="rffFdA4Lks2Woy0gzrof" version="23.1.1" type="github">
  <diagram id="C5RBs43oDa-KdzZeNtuy" name="Page-1">
    <mxGraphModel dx="1120" dy="460" grid="1" gridSize="10" guides="1" tooltips="1" connect="1" arrows="1" fold="1" page="1" pageScale="1" pageWidth="827" pageHeight="1169" math="0" shadow="0">
      <root>
        <mxCell id="WIyWlLk6GJQsqaUBKTNV-0" />
        <mxCell id="WIyWlLk6GJQsqaUBKTNV-1" parent="WIyWlLk6GJQsqaUBKTNV-0" />
        <mxCell id="WIyWlLk6GJQsqaUBKTNV-2" value="" style="rounded=0;html=1;jettySize=auto;orthogonalLoop=1;fontSize=11;endArrow=block;endFill=0;endSize=8;strokeWidth=1;shadow=0;labelBackgroundColor=none;edgeStyle=orthogonalEdgeStyle;" parent="WIyWlLk6GJQsqaUBKTNV-1" edge="1">
          <mxGeometry relative="1" as="geometry">
            <mxPoint x="270" y="209.5" as="sourcePoint" />
            <mxPoint x="320" y="209.5" as="targetPoint" />
          </mxGeometry>
        </mxCell>
        <mxCell id="WIyWlLk6GJQsqaUBKTNV-4" value="Yes" style="rounded=0;html=1;jettySize=auto;orthogonalLoop=1;fontSize=11;endArrow=block;endFill=0;endSize=8;strokeWidth=1;shadow=0;labelBackgroundColor=none;edgeStyle=orthogonalEdgeStyle;" parent="WIyWlLk6GJQsqaUBKTNV-1" edge="1">
          <mxGeometry x="0.3333" y="16" relative="1" as="geometry">
            <mxPoint as="offset" />
            <mxPoint x="394.5" y="230" as="sourcePoint" />
            <mxPoint x="394.5" y="260" as="targetPoint" />
          </mxGeometry>
        </mxCell>
        <mxCell id="Rtb9exyMGwUupCPYNTOC-0" value="User input entry box" style="ellipse;whiteSpace=wrap;html=1;" vertex="1" parent="WIyWlLk6GJQsqaUBKTNV-1">
          <mxGeometry x="330" y="190" width="130" height="40" as="geometry" />
        </mxCell>
        <mxCell id="Rtb9exyMGwUupCPYNTOC-1" value="Clock in/out button" style="ellipse;whiteSpace=wrap;html=1;" vertex="1" parent="WIyWlLk6GJQsqaUBKTNV-1">
          <mxGeometry x="330" y="270" width="130" height="40" as="geometry" />
        </mxCell>
        <mxCell id="Rtb9exyMGwUupCPYNTOC-3" value="Track hours" style="ellipse;whiteSpace=wrap;html=1;" vertex="1" parent="WIyWlLk6GJQsqaUBKTNV-1">
          <mxGeometry x="330" y="350" width="130" height="40" as="geometry" />
        </mxCell>
        <mxCell id="Rtb9exyMGwUupCPYNTOC-4" value="Yes" style="rounded=0;html=1;jettySize=auto;orthogonalLoop=1;fontSize=11;endArrow=block;endFill=0;endSize=8;strokeWidth=1;shadow=0;labelBackgroundColor=none;edgeStyle=orthogonalEdgeStyle;" edge="1" parent="WIyWlLk6GJQsqaUBKTNV-1">
          <mxGeometry x="-0.3333" y="16" relative="1" as="geometry">
            <mxPoint as="offset" />
            <mxPoint x="394.5" y="310" as="sourcePoint" />
            <mxPoint x="394.5" y="340" as="targetPoint" />
          </mxGeometry>
        </mxCell>
        <mxCell id="Rtb9exyMGwUupCPYNTOC-5" value="Yes" style="rounded=0;html=1;jettySize=auto;orthogonalLoop=1;fontSize=11;endArrow=block;endFill=0;endSize=8;strokeWidth=1;shadow=0;labelBackgroundColor=none;edgeStyle=orthogonalEdgeStyle;" edge="1" parent="WIyWlLk6GJQsqaUBKTNV-1">
          <mxGeometry x="0.3333" y="16" relative="1" as="geometry">
            <mxPoint as="offset" />
            <mxPoint x="394.5" y="390" as="sourcePoint" />
            <mxPoint x="394.5" y="420" as="targetPoint" />
          </mxGeometry>
        </mxCell>
        <mxCell id="Rtb9exyMGwUupCPYNTOC-6" value="Report produced" style="ellipse;whiteSpace=wrap;html=1;" vertex="1" parent="WIyWlLk6GJQsqaUBKTNV-1">
          <mxGeometry x="330" y="430" width="130" height="40" as="geometry" />
        </mxCell>
        <mxCell id="Rtb9exyMGwUupCPYNTOC-7" value="" style="rounded=0;html=1;jettySize=auto;orthogonalLoop=1;fontSize=11;endArrow=block;endFill=0;endSize=8;strokeWidth=1;shadow=0;labelBackgroundColor=none;edgeStyle=orthogonalEdgeStyle;" edge="1" parent="WIyWlLk6GJQsqaUBKTNV-1">
          <mxGeometry relative="1" as="geometry">
            <mxPoint x="320" y="449.5" as="sourcePoint" />
            <mxPoint x="260" y="449.5" as="targetPoint" />
          </mxGeometry>
        </mxCell>
        <mxCell id="Rtb9exyMGwUupCPYNTOC-8" value="User" style="rounded=0;whiteSpace=wrap;html=1;" vertex="1" parent="WIyWlLk6GJQsqaUBKTNV-1">
          <mxGeometry x="30" y="195" width="60" height="30" as="geometry" />
        </mxCell>
        <mxCell id="Rtb9exyMGwUupCPYNTOC-9" value="" style="rounded=0;html=1;jettySize=auto;orthogonalLoop=1;fontSize=11;endArrow=block;endFill=0;endSize=8;strokeWidth=1;shadow=0;labelBackgroundColor=none;edgeStyle=orthogonalEdgeStyle;" edge="1" parent="WIyWlLk6GJQsqaUBKTNV-1">
          <mxGeometry relative="1" as="geometry">
            <mxPoint x="100" y="209.5" as="sourcePoint" />
            <mxPoint x="150" y="209.5" as="targetPoint" />
          </mxGeometry>
        </mxCell>
        <mxCell id="Rtb9exyMGwUupCPYNTOC-10" value="Computer&lt;br&gt;+&lt;br&gt;Software" style="rounded=0;whiteSpace=wrap;html=1;" vertex="1" parent="WIyWlLk6GJQsqaUBKTNV-1">
          <mxGeometry x="170" y="190" width="90" height="40" as="geometry" />
        </mxCell>
        <mxCell id="Rtb9exyMGwUupCPYNTOC-11" value="" style="endArrow=none;html=1;rounded=0;" edge="1" parent="WIyWlLk6GJQsqaUBKTNV-1">
          <mxGeometry width="50" height="50" relative="1" as="geometry">
            <mxPoint x="180" y="230" as="sourcePoint" />
            <mxPoint x="180" y="190" as="targetPoint" />
          </mxGeometry>
        </mxCell>
        <mxCell id="Rtb9exyMGwUupCPYNTOC-16" value="" style="endArrow=none;dashed=1;html=1;dashPattern=1 3;strokeWidth=2;rounded=0;" edge="1" parent="WIyWlLk6GJQsqaUBKTNV-1">
          <mxGeometry width="50" height="50" relative="1" as="geometry">
            <mxPoint x="260" y="220" as="sourcePoint" />
            <mxPoint x="340" y="220" as="targetPoint" />
          </mxGeometry>
        </mxCell>
        <mxCell id="Rtb9exyMGwUupCPYNTOC-17" value="Report Delivery/Storage&amp;nbsp;" style="rounded=0;whiteSpace=wrap;html=1;" vertex="1" parent="WIyWlLk6GJQsqaUBKTNV-1">
          <mxGeometry x="150" y="430" width="100" height="40" as="geometry" />
        </mxCell>
      </root>
    </mxGraphModel>
  </diagram>
</mxfile>
